<svg width="17" height="17" viewBox="0 0 17 17" fill="none" xmlns="http://www.w3.org/2000/svg"><path fill-rule="evenodd" clip-rule="evenodd" d="M11.411 9.36l-.8-.6-.003-.003c-.257-.202-.439-.366-.439-.647 0-.307.223-.52.48-.767l.02-.02c.883-.668 1.97-1.51 1.97-3.284 0-1.186-.524-1.97-1.025-2.542h.571L14.842.044H8.965c-1.116 0-2.76.142-4.165 1.258l-.006.011c-.96.798-1.533 1.964-1.533 3.113a3.62 3.62 0 0 0 1.052 2.53c.943.95 2.127 1.15 2.954 1.15.064 0 .13 0 .196-.003a1.82 1.82 0 0 0-.055.454c0 .481.16.85.356 1.154-1.055.085-2.56.285-3.739.98-1.732.994-1.867 2.461-1.867 2.888 0 1.682 1.573 3.38 5.086 3.38 4.035 0 6.146-2.193 6.146-4.359 0-1.636-1.006-2.451-1.979-3.24zM5.89 3.387c0-.588.133-1.033.407-1.36.287-.346.801-.579 1.279-.579.875 0 1.45.661 1.779 1.216.405.684.656 1.59.656 2.362 0 .218 0 .88-.448 1.312-.307.295-.824.5-1.26.5-.903 0-1.473-.647-1.792-1.19a4.731 4.731 0 0 1-.621-2.26zm5.334 10.044c0 1.209-1.11 1.96-2.898 1.96-2.117 0-3.539-.908-3.539-2.258 0-1.151.949-1.62 1.665-1.872.834-.267 1.95-.322 2.205-.322.172 0 .268 0 .382.01 1.616 1.11 2.185 1.591 2.185 2.482z" fill="#F39027"/></svg>