<svg width="17" height="17" viewBox="0 0 17 17" fill="none" xmlns="http://www.w3.org/2000/svg"><path fill-rule="evenodd" clip-rule="evenodd" d="M11.412 9.36l-.801-.6-.003-.003c-.257-.202-.438-.366-.438-.647 0-.307.222-.52.48-.768l.02-.02c.882-.667 1.97-1.51 1.97-3.283 0-1.186-.525-1.97-1.025-2.542h.57L14.844.044H8.965c-1.115 0-2.76.142-4.164 1.258l-.006.011c-.96.798-1.534 1.964-1.534 3.113 0 .934.384 1.857 1.052 2.53.944.95 2.127 1.15 2.954 1.15.064 0 .13 0 .197-.003-.034.13-.055.278-.055.454 0 .481.16.85.356 1.154-1.056.085-2.561.285-3.74.98-1.732.994-1.866 2.461-1.866 2.887 0 1.683 1.572 3.38 5.086 3.38 4.034 0 6.145-2.192 6.145-4.358 0-1.636-1.006-2.451-1.978-3.24zM5.89 3.386c0-.588.133-1.033.408-1.36.287-.346.8-.579 1.278-.579.876 0 1.45.661 1.779 1.216.405.684.657 1.59.657 2.362 0 .218 0 .88-.449 1.312-.306.295-.824.5-1.26.5-.902 0-1.472-.648-1.792-1.19a4.731 4.731 0 0 1-.62-2.26zm5.334 10.044c0 1.209-1.11 1.96-2.898 1.96-2.116 0-3.538-.908-3.538-2.258 0-1.151.948-1.62 1.664-1.873.835-.267 1.951-.321 2.205-.321.172 0 .268 0 .383.01 1.616 1.11 2.184 1.59 2.184 2.482z" fill="#fff"/></svg>