<svg width="17" height="17" viewBox="0 0 17 17" fill="none" xmlns="http://www.w3.org/2000/svg"><path fill-rule="evenodd" clip-rule="evenodd" d="M8.477 12.003a3.532 3.532 0 1 0 0-7.065 3.532 3.532 0 0 0 0 7.065zM5.025 4.985A4.918 4.918 0 0 1 8.52 3.53a4.92 4.92 0 0 1 3.497 1.456 4.871 4.871 0 0 1 1.247 2.1h3.712v-4.99c0-1.17-.904-2.075-2.075-2.075H2.185C1.015.022.021.927.021 2.097v4.99h3.757c.23-.795.654-1.51 1.247-2.102zm10.54-1.29a.565.565 0 0 1-.566.566h-1.695a.565.565 0 0 1-.566-.565V2c0-.312.253-.565.566-.565h1.695c.312 0 .565.253.565.565v1.696zm-3.547 8.284a4.908 4.908 0 0 1-3.497 1.443 4.905 4.905 0 0 1-3.496-1.44A4.96 4.96 0 0 1 3.576 8.5H.021v6.314c0 1.17.994 2.164 2.164 2.164h12.717c1.17 0 2.075-.993 2.075-2.164V8.5h-3.51a4.953 4.953 0 0 1-1.449 3.479z" fill="#F39027"/></svg>