<svg width="17" height="17" viewBox="0 0 17 17" fill="none" xmlns="http://www.w3.org/2000/svg"><path fill-rule="evenodd" clip-rule="evenodd" d="M8.478 12.003a3.532 3.532 0 1 0 0-7.065 3.532 3.532 0 0 0 0 7.065zM5.025 4.985A4.918 4.918 0 0 1 8.522 3.53c1.32 0 2.563.522 3.497 1.456a4.871 4.871 0 0 1 1.246 2.1h3.713v-4.99c0-1.17-.905-2.075-2.076-2.075H2.187C1.015.022.022.927.022 2.097v4.99h3.756a4.877 4.877 0 0 1 1.247-2.102zm10.54-1.29a.565.565 0 0 1-.565.566h-1.696a.565.565 0 0 1-.565-.565V2c0-.312.253-.565.565-.565H15c.312 0 .565.253.565.565v1.696zm-3.546 8.284a4.908 4.908 0 0 1-3.497 1.443 4.905 4.905 0 0 1-3.497-1.44A4.96 4.96 0 0 1 3.577 8.5H.022v6.314c0 1.17.993 2.164 2.164 2.164h12.716c1.171 0 2.076-.993 2.076-2.164V8.5h-3.51a4.953 4.953 0 0 1-1.45 3.479z" fill="#fff"/></svg>