<svg width="17" height="17" viewBox="0 0 17 17" fill="none" xmlns="http://www.w3.org/2000/svg"><path fill-rule="evenodd" clip-rule="evenodd" d="M8.654 0C4.045 0 .31 3.707.31 8.281c0 1.565.437 3.028 1.197 4.276L0 17l4.62-1.468a8.363 8.363 0 0 0 4.034 1.03c4.61 0 8.346-3.708 8.346-8.28C17 3.706 13.264 0 8.654 0zm4.15 11.426c-.196.487-1.084.93-1.476.951-.391.021-.403.304-2.536-.623-2.134-.927-3.418-3.182-3.519-3.327-.101-.145-.826-1.178-.787-2.218.04-1.04.609-1.531.812-1.735a.817.817 0 0 1 .578-.244c.168-.002.277-.005.401 0 .125.005.311-.026.473.404.161.43.548 1.485.597 1.593.05.108.08.232.004.37-.076.14-.115.226-.226.345-.111.12-.234.268-.334.359-.11.101-.226.211-.11.428.117.216.518.924 1.13 1.507.787.75 1.465 1 1.674 1.113.209.114.334.101.464-.035.129-.137.555-.598.705-.804.15-.206.29-.166.484-.088.192.078 1.22.628 1.43.742.208.113.348.172.398.262.05.09.034.513-.162 1z" fill="#fff"/></svg>