<svg width="17" height="17" viewBox="0 0 17 17" fill="none" xmlns="http://www.w3.org/2000/svg"><path fill-rule="evenodd" clip-rule="evenodd" d="M16.888 4.935c0-1.491-1.097-2.69-2.453-2.69a120.04 120.04 0 0 0-5.62-.12H8.22c-1.91 0-3.785.033-5.62.12-1.353 0-2.45 1.206-2.45 2.697A48.65 48.65 0 0 0 .033 8.48c-.003 1.18.034 2.36.113 3.542 0 1.492 1.097 2.701 2.449 2.701 1.929.09 3.907.13 5.919.126 2.014.007 3.986-.033 5.918-.126 1.355 0 2.452-1.21 2.452-2.7a50.61 50.61 0 0 0 .113-3.546 48.67 48.67 0 0 0-.11-3.543zm-9.995 6.797V5.22l4.805 3.254-4.805 3.258z" fill="#F39027"/></svg>