<svg width="17" height="17" viewBox="0 0 17 17" fill="none" xmlns="http://www.w3.org/2000/svg"><path fill-rule="evenodd" clip-rule="evenodd" d="M16.887 4.935c0-1.491-1.097-2.69-2.452-2.69-1.836-.087-3.708-.12-5.62-.12h-.597c-1.909 0-3.784.033-5.62.12-1.352 0-2.45 1.206-2.45 2.697A49.218 49.218 0 0 0 .034 8.48c-.003 1.18.033 2.36.113 3.542 0 1.492 1.096 2.701 2.449 2.701 1.928.09 3.907.13 5.918.126a114.84 114.84 0 0 0 5.919-.126c1.355 0 2.452-1.21 2.452-2.7a50.61 50.61 0 0 0 .113-3.546 48.67 48.67 0 0 0-.11-3.543zm-9.994 6.797V5.22l4.805 3.254-4.805 3.258z" fill="#fff"/></svg>